<?xml version="1.0" encoding="utf-8"?>
<mlt LC_NUMERIC="C" version="6.19.0" title="Shotcut version 19.12.31" producer="main_bin">
  <profile description="HD 1080p 25 fps" width="1920" height="1080" progressive="1" sample_aspect_num="1" sample_aspect_den="1" display_aspect_num="16" display_aspect_den="9" frame_rate_num="60" frame_rate_den="1" colorspace="709"/>
  <playlist id="main_bin">
    <property name="xml_retain">1</property>
  </playlist>
  <producer id="black" in="00:00:00.000" out="00:00:37.433">
    <property name="length">00:00:37.450</property>
    <property name="eof">pause</property>
    <property name="resource">0</property>
    <property name="aspect_ratio">1</property>
    <property name="mlt_service">color</property>
    <property name="mlt_image_format">rgb24a</property>
    <property name="set.test_audio">0</property>
  </producer>
  <playlist id="background">
    <entry producer="black" in="00:00:00.000" out="00:00:37.433"/>
  </playlist>
  <producer id="producer19" title="Anonymous Submission" in="00:00:00.000" out="00:03:13.317">
    <property name="length">00:03:13.333</property>
    <property name="eof">pause</property>
    <property name="resource">/media/stephen/537fa564-dbd4-45b6-9b1b-ed3b06c5308c/Videos/e16/meta-video-2/take-1.flv</property>
    <property name="audio_index">1</property>
    <property name="video_index">0</property>
    <property name="mute_on_pause">0</property>
    <property name="mlt_service">avformat-novalidate</property>
    <property name="seekable">1</property>
    <property name="aspect_ratio">1</property>
    <property name="creation_time">2020-04-13T19:04:27</property>
    <property name="shotcut:hash">ae6f08ec37c64d522ce46129966b1b0d</property>
    <property name="ignore_points">0</property>
    <property name="shotcut:caption">take-1.flv</property>
    <property name="shotcut:skipConvert">1</property>
    <property name="global_feed">1</property>
    <property name="xml">was here</property>
  </producer>
  <producer id="producer20" title="Anonymous Submission" in="00:00:00.000" out="00:03:13.317">
    <property name="length">00:03:13.333</property>
    <property name="eof">pause</property>
    <property name="resource">/media/stephen/537fa564-dbd4-45b6-9b1b-ed3b06c5308c/Videos/e16/meta-video-2/take-1.flv</property>
    <property name="audio_index">1</property>
    <property name="video_index">0</property>
    <property name="mute_on_pause">0</property>
    <property name="mlt_service">avformat-novalidate</property>
    <property name="seekable">1</property>
    <property name="aspect_ratio">1</property>
    <property name="creation_time">2020-04-13T19:04:27</property>
    <property name="shotcut:hash">ae6f08ec37c64d522ce46129966b1b0d</property>
    <property name="ignore_points">0</property>
    <property name="shotcut:caption">take-1.flv</property>
    <property name="shotcut:skipConvert">1</property>
    <property name="global_feed">1</property>
    <property name="xml">was here</property>
  </producer>
  <producer id="producer21" title="Anonymous Submission" in="00:00:00.000" out="00:03:13.317">
    <property name="length">00:03:13.333</property>
    <property name="eof">pause</property>
    <property name="resource">/media/stephen/537fa564-dbd4-45b6-9b1b-ed3b06c5308c/Videos/e16/meta-video-2/take-1.flv</property>
    <property name="audio_index">1</property>
    <property name="video_index">0</property>
    <property name="mute_on_pause">0</property>
    <property name="mlt_service">avformat-novalidate</property>
    <property name="seekable">1</property>
    <property name="aspect_ratio">1</property>
    <property name="creation_time">2020-04-13T19:04:27</property>
    <property name="shotcut:hash">ae6f08ec37c64d522ce46129966b1b0d</property>
    <property name="ignore_points">0</property>
    <property name="shotcut:caption">take-1.flv</property>
    <property name="shotcut:skipConvert">1</property>
    <property name="global_feed">1</property>
    <property name="xml">was here</property>
  </producer>
  <producer id="producer22" title="Anonymous Submission" in="00:00:00.000" out="00:03:13.317">
    <property name="length">00:03:13.333</property>
    <property name="eof">pause</property>
    <property name="resource">/media/stephen/537fa564-dbd4-45b6-9b1b-ed3b06c5308c/Videos/e16/meta-video-2/take-1.flv</property>
    <property name="audio_index">1</property>
    <property name="video_index">0</property>
    <property name="mute_on_pause">0</property>
    <property name="mlt_service">avformat-novalidate</property>
    <property name="seekable">1</property>
    <property name="aspect_ratio">1</property>
    <property name="creation_time">2020-04-13T19:04:27</property>
    <property name="shotcut:hash">ae6f08ec37c64d522ce46129966b1b0d</property>
    <property name="ignore_points">0</property>
    <property name="shotcut:caption">take-1.flv</property>
    <property name="shotcut:skipConvert">1</property>
    <property name="global_feed">1</property>
    <property name="xml">was here</property>
  </producer>
  <producer id="producer23" title="Anonymous Submission" in="00:00:00.000" out="00:03:13.317">
    <property name="length">00:03:13.333</property>
    <property name="eof">pause</property>
    <property name="resource">/media/stephen/537fa564-dbd4-45b6-9b1b-ed3b06c5308c/Videos/e16/meta-video-2/take-1.flv</property>
    <property name="audio_index">1</property>
    <property name="video_index">0</property>
    <property name="mute_on_pause">0</property>
    <property name="mlt_service">avformat-novalidate</property>
    <property name="seekable">1</property>
    <property name="aspect_ratio">1</property>
    <property name="creation_time">2020-04-13T19:04:27</property>
    <property name="shotcut:hash">ae6f08ec37c64d522ce46129966b1b0d</property>
    <property name="ignore_points">0</property>
    <property name="shotcut:caption">take-1.flv</property>
    <property name="shotcut:skipConvert">1</property>
    <property name="global_feed">1</property>
    <property name="xml">was here</property>
  </producer>
  <playlist id="playlist0">
    <property name="shotcut:video">1</property>
    <property name="shotcut:name">V1</property>
    <entry producer="producer19" in="00:00:29.067" out="00:00:37.517"/>
    <entry producer="producer20" in="00:01:30.033" out="00:01:42.300"/>
    <entry producer="producer21" in="00:02:25.800" out="00:02:31.950"/>
    <entry producer="producer22" in="00:02:53.867" out="00:03:01.350"/>
    <entry producer="producer23" in="00:03:07.900" out="00:03:10.917"/>
  </playlist>
  <playlist id="playlist1">
    <property name="shotcut:audio">1</property>
    <property name="shotcut:name">A1</property>
    <blank length="00:00:00.017"/>
  </playlist>
  <producer id="producer48" title="Anonymous Submission" in="00:00:00.000" out="00:02:10.017">
    <property name="length">00:02:10.033</property>
    <property name="eof">pause</property>
    <property name="resource">/media/stephen/537fa564-dbd4-45b6-9b1b-ed3b06c5308c/Videos/e16/trans-1/take-1.flv</property>
    <property name="audio_index">1</property>
    <property name="video_index">0</property>
    <property name="mute_on_pause">0</property>
    <property name="mlt_service">avformat-novalidate</property>
    <property name="seekable">1</property>
    <property name="aspect_ratio">1</property>
    <property name="creation_time">2020-04-13T18:58:39</property>
    <property name="shotcut:hash">2c4a437f9ea55fd6ede14ccc4f14a7da</property>
    <property name="ignore_points">0</property>
    <property name="shotcut:caption">take-1.flv</property>
    <property name="shotcut:skipConvert">1</property>
    <property name="global_feed">1</property>
    <property name="xml">was here</property>
    <filter id="filter10" in="00:01:42.250" out="00:01:43.233">
      <property name="background">colour:0</property>
      <property name="mlt_service">affine</property>
      <property name="shotcut:filter">affineSizePosition</property>
      <property name="transition.fill">1</property>
      <property name="transition.distort">0</property>
      <property name="transition.rect">55 66 790 444 1</property>
      <property name="transition.valign">top</property>
      <property name="transition.halign">left</property>
      <property name="shotcut:animIn">00:00:00.000</property>
      <property name="shotcut:animOut">00:00:00.000</property>
      <property name="transition.threads">0</property>
    </filter>
  </producer>
  <producer id="producer49" title="Anonymous Submission" in="00:00:00.000" out="00:02:10.017">
    <property name="length">00:02:10.033</property>
    <property name="eof">pause</property>
    <property name="resource">/media/stephen/537fa564-dbd4-45b6-9b1b-ed3b06c5308c/Videos/e16/trans-1/take-1.flv</property>
    <property name="audio_index">1</property>
    <property name="video_index">0</property>
    <property name="mute_on_pause">0</property>
    <property name="mlt_service">avformat-novalidate</property>
    <property name="seekable">1</property>
    <property name="aspect_ratio">1</property>
    <property name="creation_time">2020-04-13T18:58:39</property>
    <property name="shotcut:hash">2c4a437f9ea55fd6ede14ccc4f14a7da</property>
    <property name="ignore_points">0</property>
    <property name="shotcut:caption">take-1.flv</property>
    <property name="shotcut:skipConvert">1</property>
    <property name="global_feed">1</property>
    <property name="xml">was here</property>
    <filter id="filter11" in="00:01:43.250" out="00:01:47.083">
      <property name="background">colour:0</property>
      <property name="mlt_service">affine</property>
      <property name="shotcut:filter">affineSizePosition</property>
      <property name="transition.fill">1</property>
      <property name="transition.distort">0</property>
      <property name="transition.rect">55 66 790 444 1</property>
      <property name="transition.valign">top</property>
      <property name="transition.halign">left</property>
      <property name="shotcut:animIn">00:00:00.000</property>
      <property name="shotcut:animOut">00:00:00.000</property>
      <property name="transition.threads">0</property>
    </filter>
  </producer>
  <producer id="producer50" title="Anonymous Submission" in="00:00:00.000" out="00:02:10.017">
    <property name="length">00:02:10.033</property>
    <property name="eof">pause</property>
    <property name="resource">/media/stephen/537fa564-dbd4-45b6-9b1b-ed3b06c5308c/Videos/e16/trans-1/take-1.flv</property>
    <property name="audio_index">1</property>
    <property name="video_index">0</property>
    <property name="mute_on_pause">0</property>
    <property name="mlt_service">avformat-novalidate</property>
    <property name="seekable">1</property>
    <property name="aspect_ratio">1</property>
    <property name="creation_time">2020-04-13T18:58:39</property>
    <property name="shotcut:hash">2c4a437f9ea55fd6ede14ccc4f14a7da</property>
    <property name="ignore_points">0</property>
    <property name="shotcut:caption">take-1.flv</property>
    <property name="shotcut:skipConvert">1</property>
    <property name="global_feed">1</property>
    <property name="xml">was here</property>
    <filter id="filter12" in="00:01:47.100" out="00:01:48.050">
      <property name="background">colour:0</property>
      <property name="mlt_service">affine</property>
      <property name="shotcut:filter">affineSizePosition</property>
      <property name="transition.fill">1</property>
      <property name="transition.distort">0</property>
      <property name="transition.rect">55 66 790 444 1</property>
      <property name="transition.valign">top</property>
      <property name="transition.halign">left</property>
      <property name="shotcut:animIn">00:00:00.000</property>
      <property name="shotcut:animOut">00:00:00.000</property>
      <property name="transition.threads">0</property>
    </filter>
  </producer>
  <producer id="producer51" title="Anonymous Submission" in="00:00:00.000" out="00:02:10.017">
    <property name="length">00:02:10.033</property>
    <property name="eof">pause</property>
    <property name="resource">/media/stephen/537fa564-dbd4-45b6-9b1b-ed3b06c5308c/Videos/e16/trans-1/take-1.flv</property>
    <property name="audio_index">1</property>
    <property name="video_index">0</property>
    <property name="mute_on_pause">0</property>
    <property name="mlt_service">avformat-novalidate</property>
    <property name="seekable">1</property>
    <property name="aspect_ratio">1</property>
    <property name="creation_time">2020-04-13T18:58:39</property>
    <property name="shotcut:hash">2c4a437f9ea55fd6ede14ccc4f14a7da</property>
    <property name="ignore_points">0</property>
    <property name="shotcut:caption">take-1.flv</property>
    <property name="shotcut:skipConvert">1</property>
    <property name="global_feed">1</property>
    <property name="xml">was here</property>
    <filter id="filter13" in="00:01:47.100" out="00:01:48.050">
      <property name="background">colour:0</property>
      <property name="mlt_service">affine</property>
      <property name="shotcut:filter">affineSizePosition</property>
      <property name="transition.fill">1</property>
      <property name="transition.distort">0</property>
      <property name="transition.rect">55 66 790 444 1</property>
      <property name="transition.valign">top</property>
      <property name="transition.halign">left</property>
      <property name="shotcut:animIn">00:00:00.000</property>
      <property name="shotcut:animOut">00:00:00.000</property>
      <property name="transition.threads">0</property>
    </filter>
  </producer>
  <producer id="producer52" title="Anonymous Submission" in="00:00:00.000" out="00:02:10.017">
    <property name="length">00:02:10.033</property>
    <property name="eof">pause</property>
    <property name="resource">/media/stephen/537fa564-dbd4-45b6-9b1b-ed3b06c5308c/Videos/e16/trans-1/take-1.flv</property>
    <property name="audio_index">1</property>
    <property name="video_index">0</property>
    <property name="mute_on_pause">0</property>
    <property name="mlt_service">avformat-novalidate</property>
    <property name="seekable">1</property>
    <property name="aspect_ratio">1</property>
    <property name="creation_time">2020-04-13T18:58:39</property>
    <property name="shotcut:hash">2c4a437f9ea55fd6ede14ccc4f14a7da</property>
    <property name="ignore_points">0</property>
    <property name="shotcut:caption">take-1.flv</property>
    <property name="shotcut:skipConvert">1</property>
    <property name="global_feed">1</property>
    <property name="xml">was here</property>
    <filter id="filter14" in="00:01:42.250" out="00:01:43.233">
      <property name="background">colour:0</property>
      <property name="mlt_service">affine</property>
      <property name="shotcut:filter">affineSizePosition</property>
      <property name="transition.fill">1</property>
      <property name="transition.distort">0</property>
      <property name="transition.rect">55 66 790 444 1</property>
      <property name="transition.valign">top</property>
      <property name="transition.halign">left</property>
      <property name="shotcut:animIn">00:00:00.000</property>
      <property name="shotcut:animOut">00:00:00.000</property>
      <property name="transition.threads">0</property>
    </filter>
  </producer>
  <producer id="producer53" title="Anonymous Submission" in="00:00:00.000" out="03:59:59.983">
    <property name="length">04:00:00.000</property>
    <property name="eof">pause</property>
    <property name="resource">#00000000</property>
    <property name="aspect_ratio">1</property>
    <property name="mlt_service">color</property>
    <property name="mlt_image_format">rgb24a</property>
    <property name="shotcut:caption">transparent</property>
    <property name="shotcut:detail">transparent</property>
    <property name="ignore_points">0</property>
    <property name="global_feed">1</property>
    <property name="xml">was here</property>
    <property name="seekable">1</property>
    <filter id="filter15" out="00:00:03.017">
      <property name="argument">Dr. Stephen R. Foster, Ph.D.</property>
      <property name="geometry">00:00:00.000=-1582 923 1670 146 1;00:00:00.583~=31 923 1670 146 1;00:00:01.617=31 926.878 1670 146 1;00:00:02.750=31 923.404 1670 146 1;00:00:02.917=1950 923.267 1670 146 1;00:00:03.033=</property>
      <property name="family">Sans</property>
      <property name="size">80</property>
      <property name="weight">750</property>
      <property name="style">normal</property>
      <property name="fgcolour">#ffffffff</property>
      <property name="bgcolour">#000000</property>
      <property name="olcolour">#aa000000</property>
      <property name="pad">20</property>
      <property name="halign">left</property>
      <property name="valign">top</property>
      <property name="outline">0</property>
      <property name="mlt_service">dynamictext</property>
      <property name="shotcut:filter">dynamicText</property>
      <property name="shotcut:usePointSize">1</property>
      <property name="shotcut:pointSize">60</property>
      <property name="shotcut:animIn">00:00:00.000</property>
      <property name="shotcut:animOut">00:00:00.000</property>
    </filter>
  </producer>
  <playlist id="playlist2">
    <property name="shotcut:video">1</property>
    <property name="shotcut:name">V2</property>
    <blank length="00:00:14.117"/>
    <entry producer="producer48" in="00:01:42.250" out="00:01:43.233"/>
    <entry producer="producer49" in="00:01:43.250" out="00:01:47.083"/>
    <entry producer="producer50" in="00:01:47.100" out="00:01:48.050"/>
    <blank length="00:00:03.467"/>
    <entry producer="producer51" in="00:01:47.100" out="00:01:48.050"/>
    <blank length="00:00:01.733"/>
    <entry producer="producer52" in="00:01:42.250" out="00:01:43.233"/>
    <blank length="00:00:07.267"/>
    <entry producer="producer53" in="00:00:00.000" out="00:00:03.017"/>
  </playlist>
  <producer id="producer71" title="Anonymous Submission" in="00:00:00.000" out="03:59:59.983">
    <property name="length">04:00:00.000</property>
    <property name="eof">pause</property>
    <property name="resource">/media/stephen/537fa564-dbd4-45b6-9b1b-ed3b06c5308c/Videos/e16/qrcode.png</property>
    <property name="aspect_ratio">1</property>
    <property name="text">INVALID</property>
    <property name="fgcolour">0xffffffff</property>
    <property name="bgcolour">0x00000000</property>
    <property name="olcolour">0x00000000</property>
    <property name="outline">0</property>
    <property name="align">left</property>
    <property name="pad">0</property>
    <property name="family">Sans</property>
    <property name="size">48</property>
    <property name="style">normal</property>
    <property name="weight">400</property>
    <property name="encoding">UTF-8</property>
    <property name="mlt_service">qimage</property>
    <property name="ttl">1</property>
    <property name="progressive">1</property>
    <property name="seekable">1</property>
    <property name="creation_time">2020-04-13T23:34:49</property>
    <property name="shotcut:hash">8fcfeed9b2221a3aa63416547215675d</property>
    <property name="ignore_points">0</property>
    <property name="global_feed">1</property>
    <property name="xml">was here</property>
    <filter id="filter29" in="00:00:00.217" out="00:00:02.517">
      <property name="background">colour:0</property>
      <property name="mlt_service">affine</property>
      <property name="shotcut:filter">affineSizePosition</property>
      <property name="transition.fill">1</property>
      <property name="transition.distort">0</property>
      <property name="transition.rect">95 390 469 468 1</property>
      <property name="transition.valign">top</property>
      <property name="transition.halign">left</property>
      <property name="shotcut:animIn">00:00:00.000</property>
      <property name="shotcut:animOut">00:00:00.000</property>
      <property name="transition.threads">0</property>
    </filter>
  </producer>
  <playlist id="playlist3">
    <property name="shotcut:video">1</property>
    <property name="shotcut:name">V3</property>
    <blank length="00:00:32.933"/>
    <entry producer="producer71" in="00:00:00.217" out="00:00:02.517"/>
  </playlist>
  <producer id="producer79" title="Anonymous Submission" in="00:00:00.000" out="03:59:59.983">
    <property name="length">04:00:00.000</property>
    <property name="eof">pause</property>
    <property name="resource">#00000000</property>
    <property name="aspect_ratio">1</property>
    <property name="mlt_service">color</property>
    <property name="mlt_image_format">rgb24a</property>
    <property name="shotcut:caption">transparent</property>
    <property name="shotcut:detail">transparent</property>
    <property name="ignore_points">0</property>
    <property name="global_feed">1</property>
    <property name="xml">was here</property>
    <property name="seekable">1</property>
    <filter id="filter38" out="00:00:05.683">
      <property name="argument">bit.ly/39GMSaY</property>
      <property name="geometry">-510 144 1920 270 1</property>
      <property name="family">Sans</property>
      <property name="size">80</property>
      <property name="weight">750</property>
      <property name="style">normal</property>
      <property name="fgcolour">#ffffffff</property>
      <property name="bgcolour">#00000000</property>
      <property name="olcolour">#aa000000</property>
      <property name="pad">0</property>
      <property name="halign">center</property>
      <property name="valign">top</property>
      <property name="outline">3</property>
      <property name="mlt_service">dynamictext</property>
      <property name="shotcut:filter">dynamicText</property>
      <property name="shotcut:usePointSize">1</property>
      <property name="shotcut:pointSize">60</property>
    </filter>
  </producer>
  <playlist id="playlist4">
    <property name="shotcut:video">1</property>
    <property name="shotcut:name">V4</property>
    <blank length="00:00:29.550"/>
    <entry producer="producer79" in="00:00:00.000" out="00:00:05.683"/>
  </playlist>
  <tractor id="tractor1" title="Shotcut version 19.12.31" global_feed="1" in="00:00:00.000" out="00:00:37.433">
    <property name="shotcut">1</property>
    <property name="shotcut:projectAudioChannels">2</property>
    <property name="shotcut:projectFolder">0</property>
    <property name="shotcut:scaleFactor">0.162186</property>
    <track producer="background"/>
    <track producer="playlist0"/>
    <track producer="playlist1" hide="video"/>
    <track producer="playlist2"/>
    <track producer="playlist3"/>
    <track producer="playlist4"/>
    <transition id="transition0">
      <property name="a_track">0</property>
      <property name="b_track">1</property>
      <property name="mlt_service">mix</property>
      <property name="always_active">1</property>
      <property name="sum">1</property>
    </transition>
    <transition id="transition1">
      <property name="a_track">0</property>
      <property name="b_track">1</property>
      <property name="version">0.9</property>
      <property name="mlt_service">frei0r.cairoblend</property>
      <property name="disable">1</property>
    </transition>
    <transition id="transition2">
      <property name="a_track">0</property>
      <property name="b_track">2</property>
      <property name="mlt_service">mix</property>
      <property name="always_active">1</property>
      <property name="sum">1</property>
    </transition>
    <transition id="transition3">
      <property name="a_track">0</property>
      <property name="b_track">3</property>
      <property name="mlt_service">mix</property>
      <property name="always_active">1</property>
      <property name="sum">1</property>
    </transition>
    <transition id="transition4">
      <property name="a_track">1</property>
      <property name="b_track">3</property>
      <property name="version">0.9</property>
      <property name="mlt_service">frei0r.cairoblend</property>
      <property name="disable">0</property>
    </transition>
    <transition id="transition5">
      <property name="a_track">0</property>
      <property name="b_track">4</property>
      <property name="mlt_service">mix</property>
      <property name="always_active">1</property>
      <property name="sum">1</property>
    </transition>
    <transition id="transition6">
      <property name="a_track">1</property>
      <property name="b_track">4</property>
      <property name="version">0.9</property>
      <property name="mlt_service">frei0r.cairoblend</property>
      <property name="disable">0</property>
    </transition>
    <transition id="transition7">
      <property name="a_track">0</property>
      <property name="b_track">5</property>
      <property name="mlt_service">mix</property>
      <property name="always_active">1</property>
      <property name="sum">1</property>
    </transition>
    <transition id="transition8">
      <property name="a_track">1</property>
      <property name="b_track">5</property>
      <property name="version">0.9</property>
      <property name="mlt_service">frei0r.cairoblend</property>
      <property name="disable">0</property>
    </transition>
  </tractor>
</mlt>
